<svg xmlns="http://www.w3.org/2000/svg" width="246.545" height="200.271" viewBox="0 0 246.545 200.271">
  <path id="Signature" d="M161.718,80.738a4.7,4.7,0,1,0,4.7,4.7,4.7,4.7,0,0,0-4.7-4.7m0,6.4a1.7,1.7,0,1,1,1.7-1.7,1.7,1.7,0,0,1-1.7,1.7M245.26,62.429a3.773,3.773,0,0,0-5.325.35L238.687,64.2c-5.6-.372-12.864,2.077-21.046,6.28a100.067,100.067,0,0,0-17.627-33.06V21.446H183.893a99.7,99.7,0,0,0-123.552,0H41.646V40.761a99.691,99.691,0,0,0-19.529,59.375,100.865,100.865,0,0,0,4.52,29.894c-14.154,9.389-20.041,17.2-22.449,21.637l-1.516.464a3.773,3.773,0,1,0,4.711,2.505L6.9,153.071c2.188-3.9,7.642-11.139,20.74-19.99a99.468,99.468,0,0,0,14,26.6v19.655h19.2a99.9,99.9,0,0,0,122.393,0h16.776V162.85A100.133,100.133,0,0,0,218.493,73.4c8.385-4.39,15.677-6.862,20.857-6.119l.935.82a3.773,3.773,0,1,0,4.975-5.674M41.646,154.266a96.312,96.312,0,0,1-11.308-22.959c3.313-2.124,7.064-4.329,11.308-6.6Zm0-33.014c-4.619,2.407-8.694,4.756-12.29,7.022A97.6,97.6,0,0,1,25.811,110.8a98.626,98.626,0,0,1-.579-10.667A96.556,96.556,0,0,1,41.646,46.165ZM122.117,3.115a96.259,96.259,0,0,1,56.606,18.331H65.512a96.256,96.256,0,0,1,56.6-18.331M44.46,24.259H56.934A100.983,100.983,0,0,0,44.46,37.125Zm0,152.26V163.312a100.085,100.085,0,0,0,12.917,13.207Zm77.657,20.638a96.607,96.607,0,0,1-56.042-17.825H178.023a96.256,96.256,0,0,1-55.906,17.825M197.2,176.519H186.7A100.868,100.868,0,0,0,197.2,166.2Zm0-15.137a97.824,97.824,0,0,1-15.408,15.137H62.3A96.9,96.9,0,0,1,44.46,158.243v-35c12.224-6.28,28.238-12.974,49.23-19.622Q89.859,114.251,86.1,127.1a2.27,2.27,0,0,0,3.989,2.007c13.771-18.326,20.141-23.495,21.791-23.764.187.593.449,3.146-2.927,12.653a2.539,2.539,0,0,0,4.238,2.6c11.7-12.48,16.78-15.189,17.745-14.946.161.218,1.364,2.586-5.959,18.366-3.249,7-3.751,10.691-1.679,12.34,4.125,3.282,15.892-5.584,40-24.324,10.406-8.09,22.345-17.369,33.9-25.386Zm0-78.409c-11.923,8.167-24.394,17.862-35.742,26.685-9.265,7.2-18.016,14.007-24.667,18.539-9.751,6.647-11.462,5.91-11.616,5.812-.01-.012-.948-1.25,2.525-8.735,7.9-17.015,7.049-20.668,4.956-22.08-1.294-.875-4.273-2.879-20.174,13.783,3.488-10.336,2.883-13.252.875-14.33-1.459-.784-4.8-2.575-23.246,21.468,2.382-7.936,4.778-15.121,7.162-21.616.489-.151.977-.3,1.472-.451,37.586-11.454,49.211-35.16,47.855-48.3-.618-5.992-4.015-9.987-8.865-10.425C127.422,42.382,110.978,57.33,95,100.063c-21.411,6.665-37.877,13.389-50.536,19.747V42.185A97.777,97.777,0,0,1,61.812,24.259H182.423A97.8,97.8,0,0,1,197.2,38.89ZM98.6,98.954c15.605-40.937,30.548-52.672,38.227-52.672q.33,0,.641.029c3.382.305,5.681,3.2,6.149,7.744,1.2,11.609-9.99,33.967-45.017,44.9m98.6-64.881a101,101,0,0,0-9.9-9.814h9.9Zm2.815,8.441a96.834,96.834,0,0,1,14.82,29.458c-4.724,2.584-9.705,5.673-14.82,9.1ZM219,100.136a96.6,96.6,0,0,1-18.988,57.622V84.709c5.409-3.673,10.7-7.018,15.664-9.782A96.933,96.933,0,0,1,219,100.136" transform="translate(0)" fill="#4f4f4f"/>
</svg>
