<svg xmlns="http://www.w3.org/2000/svg" width="23" height="23" viewBox="0 0 23 23">
  <g id="Group_118" data-name="Group 118" transform="translate(-887.5 -64.5)">
    <path id="Line_19" data-name="Line 19" d="M20,1.5H0A1.5,1.5,0,0,1-1.5,0,1.5,1.5,0,0,1,0-1.5H20A1.5,1.5,0,0,1,21.5,0,1.5,1.5,0,0,1,20,1.5Z" transform="translate(889 66)" fill="#fb5897"/>
    <path id="Line_20" data-name="Line 20" d="M20,1.5H0A1.5,1.5,0,0,1-1.5,0,1.5,1.5,0,0,1,0-1.5H20A1.5,1.5,0,0,1,21.5,0,1.5,1.5,0,0,1,20,1.5Z" transform="translate(889 86)" fill="#fb5897"/>
    <path id="Line_21" data-name="Line 21" d="M20,1.5H0A1.5,1.5,0,0,1-1.5,0,1.5,1.5,0,0,1,0-1.5H20A1.5,1.5,0,0,1,21.5,0,1.5,1.5,0,0,1,20,1.5Z" transform="translate(889 76)" fill="#fb5897"/>
  </g>
</svg>
