<svg xmlns="http://www.w3.org/2000/svg" width="23" height="23" viewBox="0 0 23 23">
  <g id="search_icon" transform="translate(-1276.5 -65.5)">
    <g id="Icon_feather-search" data-name="Icon feather-search" transform="translate(1278 67)">
      <path id="Path_1" data-name="Path 1" d="M13.389,3A10.389,10.389,0,1,1,3,13.389,10.4,10.4,0,0,1,13.389,3Zm0,17.778A7.389,7.389,0,1,0,6,13.389,7.4,7.4,0,0,0,13.389,20.778Z" transform="translate(-4.5 -4.5)" fill="#fb5897"/>
      <path id="Path_2" data-name="Path 2" d="M29.808,31.308a1.5,1.5,0,0,1-1.061-.439l-4.833-4.833a1.5,1.5,0,0,1,2.121-2.121l4.833,4.833a1.5,1.5,0,0,1-1.061,2.561Z" transform="translate(-9.808 -9.808)" fill="#fb5897"/>
    </g>
  </g>
</svg>
